# xmcd CD database file
#
# Track frame offsets:
#	150
#	13536
#	27761
#	39292
#	52749
#	67827
#	80103
#	92018
#
# Disc length: 1402 seconds
#
# Revision: 0
# Processed by: cddbd v1.5.2PL0 Copyright (c) Steve Scherf et al.
# Submitted via: CDex 1.70beta2
#
DISCID=50057808
DTITLE=Tommy Dorsey - SWING TIME 6
DYEAR=1900
DGENRE=Jazz
TTITLE0=Panama
TTITLE1=Hawaiian War Chant
TTITLE2=Maple Leaf Rag
TTITLE3=After you've Gone
TTITLE4=East Of The Sun, West Of The Moon 
TTITLE5=The Big Apple
TTITLE6=Lonsome Rord
TTITLE7=Panama(Original Versjion)
EXTD=
EXTT0=
EXTT1=
EXTT2=
EXTT3=
EXTT4=
EXTT5=
EXTT6=
EXTT7=
PLAYORDER=
